# xmcd
#
# Track frame offsets: 
#        150
#        18590
#        35590
#        50332
#        62425
#        76500
#        90542
#        104947
#        113535
#        128507
#        144417
#        153667
#        166162
#        182892
#        198182
#        212547
#
# Disc length: 2905 seconds
#
# Revision: 3
# Processed by: cddbd v1.5.2PL0 Copyright (c) Steve Scherf et al.
# Submitted via: ExactAudioCopyFreeDBPlugin 1.0
#
DISCID=ca0b5710
DTITLE=The Warner Brothers - Talking In Your Sleep
DYEAR=1992
DGENRE=AlternRock
TTITLE0=Stuck In Melbourne
TTITLE1=Brunswick St. Girl
TTITLE2=Up To Your Old Tricks
TTITLE3=Free To Choose My Poison
TTITLE4=Four Leaf Clover
TTITLE5=Hey Mama
TTITLE6=Talking In Your Sleep
TTITLE7=Circus Boy
TTITLE8=Self-Respectability
TTITLE9=Continental
TTITLE10=Its Been a Long Time Since I Got A Smile From You
TTITLE11=Clubbing Rag
TTITLE12=Gave You All My Loving
TTITLE13=Him and Joanne
TTITLE14=Agony
TTITLE15=Stuck In Melbourne (reprise)
EXTD=When recorded, the band were called "The Warner Brothers", but we
EXTD=re going to be sued by you-know-who, so had to change their name 
EXTD=to "Overnight Jones".\nAn "Overnight Jones" is someone who comes 
EXTD=to stay @ your house, but never ends up leaving, even though you 
EXTD=may want them to.\n\nRecorded in Melbourne, Australia, Oct '88 and 
EXTD=March '92
EXTT0=
EXTT1=
EXTT2=
EXTT3=
EXTT4=
EXTT5=
EXTT6=
EXTT7=
EXTT8=
EXTT9=
EXTT10=
EXTT11=
EXTT12=
EXTT13=
EXTT14=
EXTT15=
PLAYORDER=
